<svg width="302" height="70" viewBox="0 0 302 70" fill="none" xmlns="http://www.w3.org/2000/svg">
<g id="artisans-logo 1">
<rect width="302" height="70" fill="white"/>
<rect width="302" height="70" fill="url(#paint0_linear)"/>
<g id="logo">
<path id="Vector" fill-rule="evenodd" clip-rule="evenodd" d="M158.694 21.3918C158.694 19.5621 159.985 18.3906 161.995 18.3906C164.257 18.6361 167.948 20.3877 171.12 22.7306C171.64 23.1433 172.09 22.8979 172.281 22.0612L176.362 10.3133C176.553 9.9005 176.362 9.23111 175.842 8.81832C171.761 5.23707 165.938 2.81609 161.337 2.81609C160.228 2.81609 159.171 2.92765 158.157 3.10616C157.802 3.1731 157.464 3.25119 157.126 3.32929C149.683 5.15896 144.96 11.9198 144.96 21.4029C144.96 39.577 163.157 39.3204 163.157 44.2404C163.157 46.1593 161.796 47.4089 159.725 47.4089C157.264 47.1634 153.703 45.5792 150.722 43.4037C150.202 42.9909 149.752 43.2363 149.561 44.0731L145.48 55.8209C145.289 56.2337 145.48 56.825 146 57.3159C149.241 60.6517 154.934 62.8161 160.375 62.8161C170.349 62.8161 177.012 55.397 177.012 44.3073C177.012 25.9771 158.694 26.3118 158.694 21.3918Z" fill="black"/>
<path id="Vector_2" fill-rule="evenodd" clip-rule="evenodd" d="M50.6414 60.4844L38.0511 12.857L37.2453 9.80011L36.0148 5.13666C35.8242 4.63462 35.105 4.05447 34.4638 4.05447H21.2496C20.5998 4.05447 19.8892 4.63462 19.6986 5.13666L5.06339 60.4844C5.00273 60.6406 4.99407 60.7968 5.0114 60.9418C4.94208 61.3881 5.19336 61.8232 5.64395 61.8232H18.4595C19.0401 61.8232 19.56 61.4104 19.8199 60.741L21.7609 51.9831H33.9439L35.8849 60.741C36.1448 61.4104 36.6647 61.8232 37.2453 61.8232H50.0608C50.5114 61.8232 50.7627 61.3769 50.6934 60.9418C50.7194 60.7968 50.702 60.6406 50.6414 60.4844ZM27.8524 24.2367L31.3444 40.079H24.3517L27.8524 24.2367Z" fill="black"/>
<path id="Vector_3" fill-rule="evenodd" clip-rule="evenodd" d="M140.619 4.05447H140.567H140.376H130.905H129.155H128.912C128.852 4.05447 128.791 4.08795 128.722 4.11026C128.34 4.24414 128.003 4.72387 128.003 5.22592V5.30401V32.6264V32.9946V60.317V60.4063C128.003 60.9083 128.34 61.3881 128.722 61.5219C128.782 61.5443 128.843 61.5777 128.912 61.5777H129.164H130.914H140.376H140.567H140.619C141.199 61.5777 141.589 60.9976 141.589 60.3282V56.4457V55.4416V54.1028V50.3096V46.0478V43.6826V41.3955V33.9987V31.6447V24.2479V21.9608V19.5956V15.3338V11.5405V10.2017V9.19765V5.31517C141.589 4.63462 141.199 4.05447 140.619 4.05447Z" fill="black"/>
<path id="Vector_4" fill-rule="evenodd" clip-rule="evenodd" d="M86.4712 55.1627L83.6984 49.3948L79.7818 41.2393L78.6121 38.8072C83.4645 36.1408 86.5752 29.4692 86.5752 22.8868C86.5752 22.1281 86.5406 21.3806 86.4799 20.6443C86.194 17.1523 85.2495 14.0954 83.7418 11.5852C83.5425 11.2616 83.3432 10.9381 83.1265 10.6257C80.2324 6.46432 75.6573 4.04335 69.999 4.04335H52.9116C52.3917 4.04335 51.9411 4.62349 51.9411 5.29288V60.4063C51.9411 60.9864 52.3917 61.5777 52.9116 61.5777H64.3061C64.8867 61.5777 65.3459 60.9976 65.3459 60.4063V42.0649H66.1258L72.8585 60.2389C73.1184 60.9864 73.699 61.5777 74.3489 61.5777H74.4615H74.9381H81.2549H81.6188H83.0226H88.1956C88.7761 61.5777 89.2354 60.9976 88.9061 60.2389L86.4712 55.1627ZM72.018 26.4011C72.0093 26.4122 72.0006 26.4234 71.992 26.4457C71.3421 27.3606 70.363 27.8961 69.1585 27.8961H65.3372V19.0601H69.1585C71.3594 19.0601 72.8498 20.8117 72.8498 23.4781C72.8498 24.6607 72.5379 25.6536 72.018 26.4011Z" fill="black"/>
<path id="Vector_5" fill-rule="evenodd" clip-rule="evenodd" d="M124.771 4.05447H122.327H97.6144H89.9458C89.8852 4.05447 89.8332 4.06564 89.7725 4.07679C89.4693 4.16604 89.2007 4.50074 89.0967 4.91353C89.062 5.03626 89.0447 5.15897 89.0447 5.29285V17.8775C89.0447 17.9667 89.0533 18.056 89.0707 18.1452C89.1747 18.6696 89.5559 19.0377 89.9458 19.0377H100.69V34.8689V36.1631V39.7778V60.4063C100.69 60.9864 101.141 61.5777 101.661 61.5777H104.806H105.837H109.841H110.595H113.125C113.645 61.5777 114.035 60.9976 114.035 60.4063V19.0601H118.688H123.679C124.129 19.0601 124.649 18.558 124.719 17.8886L125.221 11.3843L125.698 5.21476C125.741 4.63462 125.351 4.05447 124.771 4.05447Z" fill="black"/>
<path id="Vector_6" fill-rule="evenodd" clip-rule="evenodd" d="M277.682 21.3918C277.682 19.5621 278.973 18.3906 280.984 18.3906C283.245 18.6361 286.937 20.3877 290.108 22.7306C290.628 23.1433 291.078 22.8979 291.269 22.0612L295.35 10.3133C295.541 9.9005 295.35 9.23111 294.83 8.81832C290.749 5.23707 284.926 2.81609 280.325 2.81609C279.216 2.81609 278.159 2.92765 277.145 3.10616C276.79 3.1731 276.452 3.25119 276.114 3.32929C268.671 5.15896 263.948 11.9198 263.948 21.4029C263.948 39.577 282.145 39.3204 282.145 44.2404C282.145 46.1593 280.784 47.4089 278.713 47.4089C276.253 47.1634 272.691 45.5792 269.71 43.4037C269.191 42.9909 268.74 43.2363 268.549 44.0731L264.468 55.8209C264.278 56.2337 264.468 56.825 264.988 57.3159C268.229 60.6517 273.922 62.8161 279.363 62.8161C289.337 62.8161 296 55.397 296 44.3073C296 25.9771 277.682 26.3118 277.682 21.3918Z" fill="black"/>
<path id="Vector_7" fill-rule="evenodd" clip-rule="evenodd" d="M259.356 4.05447H247.901C247.45 4.05447 246.991 4.63462 246.991 5.30401V31.0645L235.787 5.13666C235.527 4.46727 234.877 4.05447 234.297 4.05447H233.499H223.101C222.711 4.05447 222.391 4.38918 222.261 4.83544C222.218 4.95816 222.192 5.09204 222.192 5.21476V5.29285V60.4063C222.192 60.529 222.209 60.6517 222.252 60.7745C222.373 61.1984 222.677 61.5442 223.075 61.5666C223.084 61.5666 223.093 61.5777 223.101 61.5777H234.756H234.565C235.146 61.5777 235.536 60.9976 235.536 60.3282V56.4122V34.5677L246.8 60.4955C247.121 61.1649 247.71 61.5777 248.161 61.5777H259.364C259.737 61.5777 260.023 61.3434 260.188 61.0199C260.127 60.1608 260.066 59.3241 260.006 58.4985C260.084 58.5208 260.153 58.5208 260.231 58.5431C260.266 58.5543 260.3 58.5543 260.335 58.5655V5.30401C260.326 4.63462 259.945 4.05447 259.356 4.05447Z" fill="black"/>
<path id="Vector_8" fill-rule="evenodd" clip-rule="evenodd" d="M220.9 60.4844L206.265 5.13666C206.074 4.63462 205.355 4.05447 204.714 4.05447H191.508C190.859 4.05447 190.148 4.63462 189.957 5.13666L175.322 60.4844C175.132 60.9864 175.383 61.5665 175.903 61.5665H188.718C189.299 61.5665 189.819 61.1538 190.079 60.4844L192.02 51.7265H204.194L206.135 60.4844C206.395 61.1538 206.915 61.5665 207.495 61.5665H220.311C220.839 61.5665 221.099 60.9864 220.9 60.4844ZM198.111 23.9801L201.603 39.8224H194.611L198.111 23.9801Z" fill="black"/>
</g>
</g>
<defs>
<linearGradient id="paint0_linear" x1="151" y1="0" x2="151" y2="70" gradientUnits="userSpaceOnUse">
<stop stop-color="white"/>
<stop offset="1" stop-color="white" stop-opacity="0"/>
</linearGradient>
</defs>
</svg>
